<?xml version="1.0" standalone="no"?>
<!DOCTYPE svg PUBLIC "-//W3C//DTD SVG 20010904//EN"
 "http://www.w3.org/TR/2001/REC-SVG-20010904/DTD/svg10.dtd">
<svg version="1.0" xmlns="http://www.w3.org/2000/svg"
 width="512.000000pt" height="512.000000pt" viewBox="0 0 512.000000 512.000000"
 preserveAspectRatio="xMidYMid meet">
<metadata>
Created by potrace 1.14, written by Peter Selinger 2001-2017
</metadata>
<g transform="translate(0.000000,512.000000) scale(0.100000,-0.100000)"
fill="#000000" stroke="none">
<path d="M2233 5102 c-74 -42 -108 -90 -123 -173 -17 -96 -22 -124 -24 -144
-10 -77 -14 -81 -74 -95 -146 -32 -373 -124 -531 -214 l-94 -54 -81 59 c-163
118 -213 137 -299 112 -41 -12 -73 -40 -253 -219 -123 -123 -212 -220 -220
-240 -19 -46 -20 -111 -2 -154 8 -19 49 -83 91 -141 l75 -107 -35 -58 c-87
-142 -192 -396 -229 -551 -19 -77 -20 -78 -89 -87 -22 -4 -51 -8 -65 -11 -14
-2 -38 -7 -55 -10 -105 -17 -148 -39 -190 -98 l-30 -42 -3 -290 c-2 -198 0
-303 8 -331 22 -77 97 -130 210 -149 25 -4 54 -9 65 -11 10 -2 37 -6 60 -10
22 -3 46 -7 54 -8 9 -2 24 -40 41 -102 48 -175 127 -363 223 -529 l35 -60 -70
-95 c-38 -52 -78 -114 -89 -136 -24 -52 -26 -118 -6 -165 20 -50 404 -433 453
-454 49 -20 121 -19 169 5 22 10 83 50 135 88 l95 70 60 -35 c166 -96 455
-214 587 -238 40 -8 43 -13 53 -85 3 -25 8 -52 10 -60 2 -8 6 -33 10 -55 16
-116 71 -192 154 -215 25 -6 147 -10 317 -10 305 1 319 4 374 67 40 45 49 67
66 160 8 48 17 95 19 103 2 8 4 29 4 47 1 31 4 33 59 49 114 32 247 76 256 85
6 5 17 9 26 9 19 0 254 117 320 160 25 15 51 29 58 29 8 1 145 -130 304 -290
320 -320 350 -346 423 -379 65 -30 94 -35 195 -34 95 0 152 17 235 69 206 130
266 425 127 628 -18 25 -167 180 -332 345 -165 165 -300 304 -300 309 0 5 28
59 63 119 34 61 78 146 96 190 19 43 39 93 46 109 17 39 75 225 81 261 6 31
19 43 49 45 11 0 27 2 35 4 8 1 47 8 85 14 39 6 86 15 106 21 47 13 121 78
136 121 10 24 12 114 10 334 l-2 302 -28 37 c-33 42 -90 83 -127 89 -14 3 -52
10 -85 16 -33 5 -78 13 -100 17 -22 4 -43 8 -47 9 -5 2 -12 3 -17 4 -5 0 -12
18 -16 39 -25 133 -149 438 -244 597 l-30 50 66 89 c36 49 76 110 89 134 28
52 32 124 10 176 -19 46 -408 434 -454 453 -94 39 -161 14 -354 -134 l-42 -31
-50 30 c-156 92 -431 205 -578 238 -64 15 -58 4 -81 140 -4 19 -9 51 -12 70
-17 103 -53 162 -121 195 l-50 26 -291 -1 c-254 -1 -294 -3 -320 -18z m513
-1275 c10 -3 35 -8 54 -11 144 -22 358 -113 500 -214 59 -42 232 -207 270
-257 139 -184 234 -417 258 -629 12 -109 5 -338 -12 -386 -3 -8 -7 -28 -9 -45
-9 -62 -62 -217 -84 -244 -1 -2 -73 66 -158 151 l-154 156 12 68 c41 221 -18
474 -155 659 -164 222 -419 355 -688 358 -259 3 -382 -53 -356 -160 5 -18 80
-101 208 -229 l200 -202 -6 -93 c-8 -115 -17 -234 -19 -235 -2 -2 -118 -12
-227 -20 -47 -3 -87 -8 -89 -10 -3 -3 -100 90 -216 206 -185 184 -215 210
-243 210 -73 0 -100 -32 -128 -155 -26 -114 -23 -283 6 -395 99 -384 439 -658
824 -663 91 -2 188 7 219 19 12 4 58 -35 172 -149 85 -85 155 -157 155 -160 0
-10 -174 -71 -237 -84 -145 -28 -363 -37 -478 -18 -68 11 -217 53 -285 81
-372 151 -656 478 -761 874 -39 152 -46 402 -14 552 55 267 171 479 363 668
203 199 459 326 721 356 31 3 57 8 59 9 6 5 277 -2 298 -8z"/>
</g>
</svg>
